<svg xmlns="http://www.w3.org/2000/svg" version="1.1"
     width="200" height="200" viewBox="0 0 400 400" fill="#000">
  <g>
    <path d="M323.433,211.572c-9.891-12.094-26.1-18.699-46.961-19.219c-0.575-4.976-4.797-8.841-9.928-8.841H66.452
      c-5.523,0-10,4.478-10,10v116c0,23.045,12.86,43.685,33.561,53.865v0.001c-1.004,2.394-1.513,4.928-1.513,7.535
      c0,10.752,8.747,19.499,19.499,19.499h116.999c10.752,0,19.499-8.747,19.499-19.499c0-2.607-0.509-5.144-1.514-7.536
      c17.71-8.71,29.673-25.076,32.763-44.052c17.111-3.789,31.613-13.604,42.518-28.944c10.125-14.244,13.489-28.244,13.841-29.795
      l0.07-0.333C336.264,240.041,333.322,223.662,323.433,211.572z M302.819,254.061c-0.256,1-2.717,10.09-9.008,18.94
      c-4.866,6.847-10.583,11.714-17.267,14.666v-65.313c7.533,0.276,18.461,1.847,23.667,8.211
      C304.099,235.316,304.975,243.223,302.819,254.061z"/>
    <path d="M122.303,71.249c16.242,1.886,32.799,2.14,46.854,2.14c4.57,0,9.141-0.028,13.709-0.057
      c7.102-0.044,14.195-0.088,21.275-0.025l1.063,0.004c1.804,0,3.911-0.033,6.106-0.068c2.28-0.037,4.658-0.075,6.889-0.078
      c-4.371,0.859-9.686,1.808-14.43,2.654c-9.556,1.706-19.437,3.47-26.543,5.152l-1.336,0.315
      c-13.799,3.253-34.651,8.169-41.382,23.084c-2.649,5.745-2.456,12.306,0.529,17.999c3.149,6.007,8.968,10.282,15.567,11.436
      c2.307,0.403,4.787,0.788,7.483,0.788c4.389,0,8.791-0.397,12.996-1.225c21.754-4.275,21.941,1.369,21.95,1.958
      c0.06,3.698-7.134,10.097-10.206,12.83c-0.659,0.586-1.214,1.08-1.614,1.46c-0.801,0.76-1.744,1.601-2.763,2.51
      c-6.228,5.555-14.757,13.163-13.723,21.484c0.125,1.004,0.979,1.753,1.984,1.753c0.019,0,0.037,0,0.055-0.001
      c1.03-0.027,1.87-0.833,1.941-1.86c0.238-3.423,3.58-6.422,6.69-8.962c2.954-2.401,6.159-4.639,9.258-6.802
      c1.293-0.901,2.585-1.804,3.866-2.721l0.099-0.07c5.674-4.062,15.17-10.856,16.458-18.999c0.518-3.267-0.316-6.408-2.477-9.337
      c-6.008-8.143-16.831-8.824-26.501-8.824l-0.776,0.001c-1.714,0.004-3.438,0.046-5.166,0.087
      c-1.788,0.044-3.579,0.088-5.368,0.088c-3.083,0-5.57-0.133-7.826-0.429c-4.518-0.593-6.049-2.999-4.992-4.799
      c3.143-5.351,18.979-10.081,47.547-13.787c1.554-0.202,2.772-0.36,3.558-0.479c1.752-0.269,3.51-0.529,5.271-0.791
      c10.118-1.502,20.582-3.057,30.58-6.02c17.827-5.285,21.239-14.262,20.849-21.073"/>
  </g>
</svg>
